HIERARCHY
ROOT Hips
{
	OFFSET 0.000000 0.000000 0.000000 
	CHANNELS 6 Xposition Yposition Zposition Yrotation Zrotation Xrotation 
	JOINT Lumbar
	{
		OFFSET 0.000000 0.000000 0.000000 
		CHANNELS 3 Zrotation Xrotation Yrotation
		JOINT Neck
		{
			OFFSET 0.000000 0.445665 0.000000 
			CHANNELS 3 Zrotation Xrotation Yrotation
			End Site
			{
				OFFSET 0.000000 0.227535 0.000000 
			}
		}
		JOINT RightShoulder
		{
			OFFSET 0.019635 0.377685 0.194865 
			CHANNELS 3 Zrotation Xrotation Yrotation
			JOINT RightElbow
			{
				OFFSET 0.000000 -0.243375 0.000000 
				CHANNELS 2 Zrotation Yrotation
				JOINT RightWrist
				{
					OFFSET 0.000000 -0.264825 0.000000 
					CHANNELS 2 Zrotation Xrotation
					End Site
					{
						OFFSET 0.006600 -0.176220 0.000990 
					}
				}
			}
		}
		JOINT LeftShoulder
		{
			OFFSET 0.019635 0.377685 -0.194865 
			CHANNELS 3 Zrotation Xrotation Yrotation
			JOINT LeftElbow
			{
				OFFSET 0.000000 -0.243375 0.000000 
				CHANNELS 2 Zrotation Yrotation
				JOINT LeftWrist
				{
					OFFSET 0.000000 -0.264825 0.000000 
					CHANNELS 2 Zrotation Xrotation
					End Site
					{
						OFFSET 0.006600 -0.176220 -0.000990 
					}
				}
			}
		}
	}
	JOINT RightHip
	{
		OFFSET 0.052140 -0.069960 0.075570 
		CHANNELS 3 Zrotation Xrotation Yrotation
		JOINT RightKnee
		{
			OFFSET 0.000000 -0.402270 0.000000 
			CHANNELS 1 Zrotation
			JOINT RightAnkle
			{
				OFFSET 0.000000 -0.404085 0.000000 
				CHANNELS 3 Zrotation Xrotation Yrotation
				End Site
				{
					OFFSET 0.204105 -0.089430 0.008415 
				}
			}
		}
	}
	JOINT LeftHip
	{
		OFFSET 0.052140 -0.069960 -0.075570 
		CHANNELS 3 Zrotation Xrotation Yrotation
		JOINT LeftKnee
		{
			OFFSET 0.000000 -0.402270 0.000000 
			CHANNELS 1 Zrotation
			JOINT LeftAnkle
			{
				OFFSET 0.000000 -0.404085 0.000000 
				CHANNELS 3 Zrotation Xrotation Yrotation
				End Site
				{
					OFFSET 0.204105 -0.089430 -0.008415 
				}
			}
		}
	}
}
MOTION
Frames: 19
Frame Time: 0.02
-0.48228 -0.04827 -1.1167 566.28952 -39.51439 -4.48092 35.57875 0.25506 -3.70561 -16.49127 19.49525 -2.11983 -11.21049 -27.96186 35.52937 75.40469 89.74513 4.80028 1.0343 -21.54347 25.11589 -7.17413 47.35143 -80.21439 -3.37007 -2.13878 47.70751 6.39228 -17.98104 -28.61522 -8.01714 -0.48532 -2.5519 30.58653 20.46073 -7.30255 -28.81469 -7.29256 0.21882 2.38517
-0.49004 -0.04876 -1.11933 567.76422 -39.63977 -4.11136 35.62102 0.25886 -3.50923 -16.49601 19.27646 -2.11983 -11.42014 -28.71545 34.94883 79.58321 89.30282 4.48635 0.94778 -22.15686 25.43988 -6.89899 47.20181 -80.97205 -2.82944 -2.1273 47.04715 6.64556 -18.7464 -27.80033 -7.9637 -0.52703 -2.56901 32.5084 20.87924 -7.97997 -31.07213 -7.66169 0.05087 2.31986
-0.49706 -0.04907 -1.12192 569.31035 -39.79503 -3.71505 35.6903 0.25612 -3.43363 -16.54851 19.01131 -2.11983 -11.25955 -29.40741 34.38859 84.38606 89.03517 4.28195 0.86816 -22.75741 25.79603 -6.89606 47.30699 -82.3422 -1.92007 -2.1385 46.40614 6.85384 -19.67616 -26.84326 -7.92674 -0.55531 -2.58034 34.85838 21.28845 -8.47372 -33.69468 -8.0995 -0.14711 2.24325
-0.50436 -0.04945 -1.1245 570.81955 -39.9329 -3.32982 35.74198 0.25327 -3.28504 -16.5783 18.78323 -2.11983 -11.22267 -30.11869 33.81127 88.88725 88.77815 4.06633 0.80315 -23.34869 26.11366 -6.74579 47.30782 -83.72328 -1.07859 -2.18653 45.75764 7.08345 -20.51005 -25.95422 -7.88209 -0.59066 -2.59477 36.98787 21.68763 -9.03297 -36.1115 -8.49477 -0.32254 2.17557
-0.51187 -0.04986 -1.12719 572.34701 -40.0895 -2.95003 35.81457 0.26553 -3.20303 -16.60763 18.49142 -2.11983 -11.38608 -30.86905 33.25861 93.50214 88.15186 3.6826 0.66802 -24.00399 26.53121 -6.69108 47.27273 -83.96253 -0.63086 -2.04846 45.10094 7.31051 -21.43797 -25.04855 -7.83623 -0.62261 -2.6074 39.24181 22.14731 -9.67791 -38.71728 -8.93835 -0.53543 2.09191
-0.51877 -0.05017 -1.12964 573.85634 -40.21259 -2.5516 35.85035 0.2439 -3.01705 -16.65035 18.31863 -2.11983 -11.03667 -31.52214 32.66273 98.00844 88.30988 3.67251 0.6735 -24.52202 26.74965 -6.50795 47.36783 -86.6241 0.68955 -2.2871 44.46808 7.53103 -22.20552 -24.14667 -7.79737 -0.65885 -2.62262 41.32939 22.47787 -10.09905 -40.99866 -9.2976 -0.67738 2.03888
-0.52424 -0.05025 -1.13148 575.26482 -40.24305 -2.11588 35.78165 0.13112 -2.48662 -16.72728 18.50132 -2.11983 -9.40005 -31.92475 31.94166 102.12797 90.87078 4.7242 1.13147 -24.67334 26.39762 -5.84961 47.76484 -96.71857 4.63977 -3.70336 43.88318 7.7531 -22.51271 -23.26511 -7.77676 -0.702 -2.64287 42.89047 22.46418 -9.91939 -42.41043 -9.40504 -0.61771 2.07233
-0.5291 -0.05025 -1.13306 576.65852 -40.23725 -1.66101 35.67477 -0.01589 -1.85349 -16.81525 18.80212 -2.11983 -7.25296 -32.23027 31.1777 106.09908 94.16851 6.13911 1.7194 -24.68517 25.84629 -5.06244 48.28138 -109.07482 9.40175 -5.47322 43.32469 7.96827 -22.64904 -22.39726 -7.7625 -0.75114 -2.66648 44.26062 22.31942 -9.52308 -43.45927 -9.4257 -0.48566 2.137
-0.5342 -0.0503 -1.13473 578.08038 -40.2429 -1.20967 35.5829 -0.14819 -1.28681 -16.89299 19.03839 -2.11983 -5.31163 -32.57856 30.4352 110.09138 96.94277 7.35185 2.20377 -24.75514 25.39477 -4.36975 48.73854 -119.79473 13.58373 -6.98503 42.7624 8.18121 -22.84723 -21.53898 -7.74365 -0.80288 -2.69083 45.69196 22.22776 -9.24391 -44.59821 -9.48716 -0.38529 2.18812
-0.53945 -0.0503 -1.13654 579.41395 -40.2704 -0.77859 35.50093 -0.2775 -0.64123 -16.9939 19.31903 -2.11983 -3.46314 -32.93234 29.68516 114.30448 100.50397 8.72448 2.87286 -24.84752 24.90609 -3.53553 49.22664 -133.05654 18.65332 -8.90072 42.16442 8.41617 -23.11443 -20.60754 -7.73222 -0.83222 -2.70555 47.24672 22.16168 -8.88459 -46.06958 -9.54455 -0.28976 2.23675
-0.54424 -0.05038 -1.13798 580.92734 -40.24398 -0.30193 35.39006 -0.42057 -0.13342 -17.04905 19.53574 -2.11983 -1.31128 -33.25003 28.94014 118.01026 102.61787 9.84941 3.19218 -24.85941 24.44615 -2.96114 49.67472 -141.61364 22.08272 -10.06878 41.64893 8.60301 -23.1995 -19.83548 -7.70702 -0.90917 -2.74101 48.49309 22.01304 -8.63697 -46.75309 -9.58983 -0.16822 2.29736
-0.54803 -0.05069 -1.13849 582.93671 -40.07202 0.30238 35.19884 -0.59785 -0.03607 -16.97105 19.54874 -2.11983 1.60591 -33.51276 28.22246 120.37854 100.38908 10.19755 2.47586 -24.6912 24.12202 -3.14106 49.98649 -136.09147 20.60111 -8.99879 41.33686 8.66924 -22.78423 -19.48518 -7.63916 -1.12163 -2.8347 48.93311 21.65372 -8.79518 -45.38304 -9.61555 0.01571 2.38717
-0.55136 -0.05108 -1.13862 585.1274 -39.84786 0.95031 34.98154 -0.78684 -0.07918 -16.84723 19.49334 -2.11983 4.79798 -33.73901 27.51102 122.23203 96.70735 10.28411 1.40884 -24.44586 23.83222 -3.58416 50.25185 -125.84699 17.4705 -7.17932 41.11017 8.68557 -22.19747 -19.29856 -7.55778 -1.38087 -2.94884 49.06631 21.21861 -9.05995 -43.22327 -9.63377 0.21783 2.48529
-0.55485 -0.05143 -1.13889 587.23813 -39.65112 1.5742 34.78259 -0.9675 -0.05451 -16.74677 19.46817 -2.11983 7.82936 -33.96837 26.79426 124.30146 93.80024 10.49246 0.52893 -24.23004 23.52128 -3.90242 50.53494 -118.11984 15.21662 -5.76128 40.85605 8.718 -21.71483 -19.04722 -7.48449 -1.61509 -3.05246 49.34021 20.82796 -9.25529 -41.40303 -9.65905 0.41149 2.57979
-0.55853 -0.0518 -1.13929 589.34035 -39.43776 2.21759 34.55508 -1.16233 -0.04399 -16.63574 19.45018 -2.11983 11.03452 -34.25071 26.08511 126.44637 90.44093 10.70115 -0.45826 -24.03073 23.22617 -4.2401 50.83673 -108.93019 12.46484 -4.103 40.55482 8.77779 -21.11816 -18.75446 -7.40305 -1.86523 -3.16137 49.60707 20.39058 -9.55605 -39.65739 -9.66319 0.62523 2.68301
-0.5617 -0.05216 -1.13933 591.50068 -39.24679 2.8292 34.38111 -1.32966 -0.03739 -16.53602 19.40011 -2.11983 13.93038 -34.41589 25.3639 128.30842 87.66303 10.84239 -1.31361 -23.78301 22.9096 -4.59942 51.08676 -101.60371 10.33395 -2.75725 40.37168 8.76899 -20.71749 -18.58794 -7.3355 -2.09343 -3.26411 49.81228 20.03409 -9.63478 -37.5669 -9.71414 0.77951 2.7592
-0.56367 -0.05249 -1.13857 593.80111 -39.13306 3.3528 34.36387 -1.42069 -0.01864 -16.47575 19.27228 -2.11983 15.95124 -34.26211 24.59277 129.55934 86.88552 10.86016 -1.65981 -23.40014 22.51955 -4.97078 51.20511 -100.85179 10.44069 -2.50368 40.4935 8.58155 -20.92721 -18.71985 -7.30773 -2.2478 -3.34438 49.97526 19.92122 -9.34458 -34.78089 -9.86634 0.95078 2.85101
-0.56511 -0.05282 -1.13745 596.14888 -39.04341 3.84062 34.40121 -1.48299 0.0026 -16.42897 19.11512 -2.11983 17.63937 -33.99311 23.81216 130.53571 86.72764 10.81881 -1.87091 -22.97592 22.10872 -5.35151 51.27182 -102.08322 11.206 -2.5818 40.73109 8.327 -21.33642 -18.97526 -7.29468 -2.3787 -3.41774 50.07953 19.89251 -8.78305 -31.66947 -10.07138 1.03082 2.90007
-0.56674 -0.05315 -1.13644 598.45986 -38.9411 4.33818 34.41202 -1.55665 0.02974 -16.37784 18.97456 -2.11983 19.4477 -33.78006 23.04619 131.60972 86.26231 10.80178 -2.18602 -22.58437 21.71232 -5.71867 51.36229 -102.20513 11.58297 -2.47422 40.91573 8.1043 -21.63657 -19.1804 -7.27613 -2.52164 -3.49458 50.17473 19.82512 -8.16309 -28.66152 -10.27286 1.02514 2.90535
